# xmcd CD Database Entry
#
# Track frame offsets:
# 150
# 17932
# 35490
# 53287
#
# Disc length: 1041 seconds
#
# Revision: 3
# Processed by: cddbd v1.4PL0 Copyright (c) Steve Scherf et al.
# Submitted via: tcd 2.0b
#
DISCID=26040f04
DTITLE=Shaggy - Angel CD Single
DYEAR=1900
DGENRE=
TTITLE0=Angel (Album Version)
TTITLE1=Angel (Remix)
TTITLE2=Angel (Instrumental)
TTITLE3=Angel (Live)
EXTD=
EXTT0=
EXTT1=
EXTT2=
EXTT3=
PLAYORDER=
